<svg width="50" height="50" fill="none" xmlns="http://www.w3.org/2000/svg">
  <g clip-path="url(#clip0)">
    <path d="M47.8435 33.9921c1.0247-1.307 1.5161-2.7081 1.4533-4.151-.0627-1.5893-.7737-2.8336-1.3592-3.5969.6796-1.6938.941-4.3601-1.3279-6.4303-1.6625-1.5161-4.4856-2.1957-8.3961-2.0075-2.7499.1254-5.0502.6378-5.1443.6587h-.0104c-.5228.0941-1.077.2091-1.6416.3346-.0418-.6692.0732-2.3317 1.307-6.0749 1.4638-4.4542 1.3802-7.86282-.2719-10.1422C30.7168.188206 27.9459 0 27.1304 0c-.7842 0-1.5057.324132-2.018.920117-1.1606 1.348803-1.0247 3.837303-.8783 4.987453-1.3802 3.70138-5.2488 12.77713-8.5215 15.29693-.0628.0418-.115.0941-.1673.1464-.962 1.0142-1.6102 2.1121-2.0494 3.074-.6169-.3346-1.3174-.5228-2.0702-.5228H5.04758c-2.40485 0-4.349643 1.9553-4.349643 4.3497v16.9908c0 2.4048 1.955253 4.3496 4.349643 4.3496h6.37812c.9305 0 1.7984-.2927 2.5094-.7946l2.4571.2927c.3764.0523 7.0682.8992 13.9377.7633 1.2442.0941 2.4153.1464 3.5027.1464 1.8716 0 3.5027-.1464 4.862-.4391 3.1995-.6797 5.3848-2.0389 6.4931-4.036.8469-1.5266.8469-3.0427.711-4.0046 2.0807-1.8821 2.4467-3.9628 2.3735-5.4266-.0418-.8469-.2301-1.5684-.4287-2.1016zM5.04758 46.7691c-.84692 0-1.52656-.6901-1.52656-1.5265V28.2413c0-.8469.69009-1.5265 1.52656-1.5265h6.37812c.8469 0 1.5265.6901 1.5265 1.5265v16.9908c0 .8469-.6901 1.5266-1.5265 1.5266H5.04758v.0104zM45.1668 32.7687c-.4392.4601-.5228 1.1606-.1882 1.7043 0 .0105.4287.7424.4809 1.7462.0732 1.3697-.5855 2.5826-1.9657 3.6177-.4914.3764-.6901 1.0247-.4809 1.6102 0 .0104.4496 1.3906-.2823 2.6976-.7006 1.2547-2.2585 2.1539-4.6215 2.6558-1.8926.4078-4.4647.481-7.6224.23h-.1464c-6.7231.1464-13.5194-.7319-13.5926-.7423h-.0105l-1.056-.1255c.0627-.2928.0941-.6064.0941-.9201V28.2413c0-.4496-.0732-.8887-.1987-1.2965.1883-.7006.711-2.2585 1.9448-3.5864 4.6947-3.7223 9.2849-16.27977 9.4835-16.82348.0837-.21957.1046-.46006.0628-.70054-.1778-1.17106-.1151-2.60351.1359-3.03221.5541.01046 2.0493.1673 2.9485 1.41155 1.0665 1.47428 1.0247 4.10916-.1254 7.60138-1.7566 5.3221-1.903 8.1243-.5124 9.358.6901.6169 1.6102.6483 2.2794.4078.6378-.1464 1.2443-.2718 1.8193-.3659.0419-.0105.0941-.0209.136-.0314 3.2099-.7005 8.9606-1.1292 10.9577.6901 1.6939 1.5475.4914 3.5968.3555 3.8164-.3868.5855-.2718 1.3488.251 1.8193.0104.0105 1.1083 1.0456 1.1606 2.4362.0418.9306-.3974 1.8821-1.307 2.8231z" fill="#2E2F22"/>
  </g>
  <defs>
    <clipPath id="clip0">
      <path fill="#fff" d="M0 0h50v50H0z"/>
    </clipPath>
  </defs>
</svg>
