<svg width="50" height="50" fill="none" xmlns="http://www.w3.org/2000/svg">
  <g clip-path="url(#clip0)">
    <path d="M44.5058 29.8928l-.0271-.0252c-.4269-.394-1.7346-1.6666-2.1755-2.2228-.5177-.6939-.3983-1.1486-.0103-1.8299.4902-.861 1.4724-2.1817 2.5119-3.5801 3.3295-4.4777 5.4791-7.5776 5.0366-9.7794l-.2384-1.1761-12.296.0054c-.0431.1159-.6847 2.9346-3.3924 7.7343-1.9634 3.4801-3.2512 4.5734-3.7048 4.7664l-.0702-.0213c-.1476-.1824-.4055-.6745-.5116-1.9428-.1106-1.3287-.0125-2.9374.0824-4.493.1111-1.8242.2068-3.3997-.0225-4.5269l-.3734-1.8364c-.4513-.0721-2.1034-.7095-6.7067-.758-3.9852-.0408-5.1559.5348-5.7308 1.0422l-1.9016 1.6781 2.4036.8087c.9148.3078 1.2184.663 1.4675 2.4235.1626 1.1474.2476 3.0758.0721 4.7973-.2521 2.4685-.8567 2.9278-.888 2.9522-.1042-.0354-.9873-.4219-2.5204-3.6632-1.0635-2.248-1.9958-4.9073-2.6772-6.8489-.7797-2.2236-.6393-1.7502-1.0349-2.8008l-11.895756-.0004.769807 1.9913C3.88146 20.8966 6.82603 27.3858 10.7666 32.0466c4.3537 5.1494 9.7645 7.8457 17.0529 7.8457h1.4648v-1.4649c0-1.3694.1133-2.3555.3563-3.1032.1484-.4555.3456-.832.5528-1.2268.3075-.5814.6081-.8305.7721-.8675.1488-.034.4104.0751.7004.2914.8323.6207 1.493 1.4363 2.1927 2.2999 1.0093 1.2463 2.053 2.5345 3.709 3.3779.9048.4609 2.5635.6936 3.4763.6936.2415 0 8.8479-.0004 8.8585-.0004l-.0629-1.5251c-.0938-2.2805-1.8887-5.132-5.3337-8.4744zm-3.405 7.0698h-.0237c-.6294.0103-1.8307-.1961-2.1801-.3739-1.1009-.5607-1.8703-1.511-2.7618-2.6111-.7824-.9663-1.5915-1.9654-2.718-2.805-.911-.6794-1.7384-.8781-2.3953-.8781-.2624 0-.4982.0316-.7003.0774-.7626.1717-1.8532.7202-2.7203 2.3602-.2445.4665-.5219.9949-.7465 1.6861-.2354.7232-.3819 1.527-.4517 2.5047-5.4924-.312-9.7782-2.4849-13.3992-6.7677-3.36643-3.9821-6.01498-9.552-8.81993-16.6309.20294 0 5.28832.0007 5.58854.0007.09193.2583.19112.5413.29639.8412.7343 2.0946 1.7403 4.9629 2.9255 7.4089 1.6972 3.5027 3.2471 5.0648 5.0251 5.0648.8877 0 1.6838-.3761 2.3022-1.0884.8816-1.015 1.3935-2.6905 1.5652-5.1223.1354-1.9177.0095-3.8277-.1393-4.8802-.1228-.8659-.2979-1.775-.7251-2.5894 1.8207-.082 4.2587.0477 5.8033.2693.1403.7645.0488 2.2671-.0397 3.7209-.214 3.5118-.4349 7.1358 1.424 8.8314.3269.2983.6737.4581.6836.4646l.9461.2903c.365-.1125 2.4795.9602 6.4834-6.0272 1.2829-2.2389 2.4773-4.8187 3.1205-6.5037 1.4915-.0031 6.5731.0027 7.1701.0034-.8457 1.8612-2.85 4.5159-4.16 6.2779-1.1421 1.5358-2.1282 2.8622-2.7069 3.8784-1.075 1.8879-.8941 3.5706.2255 5.0549l.0175.0229c.6249.7953 2.1679 2.2678 2.488 2.5646 2.3186 2.251 3.4359 3.8681 3.9677 4.9549h-5.3448v.0004z" fill="#2E2F22"/>
  </g>
  <defs>
    <clipPath id="clip0">
      <path fill="#fff" d="M0 0h50v49.9024H0z"/>
    </clipPath>
  </defs>
</svg>
