<svg width="50" height="50" fill="none" xmlns="http://www.w3.org/2000/svg">
  <g clip-path="url(#clip0)">
    <path d="M50 10.0551c-3.1452.145-3.0766.1332-3.4321.1629l1.8627-5.31958s-5.8143 2.1389-7.2883 2.52151c-3.8712-3.47938-9.6253-3.63312-13.739-1.10473-3.3688 2.07099-5.177 5.6274-4.5739 9.7843-6.5563-.9098-12.0803-4.0176-16.44169-9.25673L5.00832 5.18604 3.97758 7.0789c-1.30271 2.39181-1.7353 5.1266-1.21841 7.7003.2121 1.056.57259 2.063 1.07193 3.006l-1.18332-.4585-.14038 1.9772c-.14229 2.0084.52643 4.3529 1.78909 6.2709.35553.5402.8133 1.1334 1.39351 1.7186l-.61149-.0939.74615 2.2656c.98076 2.9766 3.01781 5.2795 5.66144 6.5597-2.6402 1.1204-4.773 1.8353-8.2787 2.9885L0 40.0676l2.96249 1.6198c1.12954.6176 5.12085 2.6802 9.06451 3.2989 8.7661 1.3748 18.6359.2552 25.2804-5.7289 5.5965-5.0404 7.4329-12.2101 7.0514-19.6713-.0576-1.1295.2518-2.2075.8713-3.0349 1.2409-1.6568 4.7623-6.485 4.7699-6.4961zm-7.1125 4.7413c-1.0288 1.3737-1.5442 3.1281-1.4519 4.9393.3849 7.526-1.6628 13.3625-6.0867 17.3466-5.1678 4.6543-13.5033 6.4811-22.8684 5.0121-1.696-.2659-3.44882-.8614-4.89955-1.4561 2.93925-1.0113 5.20895-1.9127 8.87455-3.6476l5.117-2.422-5.6496-.3616c-2.7061-.1732-4.9595-1.4847-6.34458-3.614.73548-.0428 1.44458-.1618 2.15068-.3586l5.3883-1.5007-5.4333-1.3306c-2.64012-.6466-4.14501-2.2262-4.94267-3.4378-.52376-.7961-.86593-1.6117-1.07116-2.3636.54473.1461 1.17988.2503 2.20413.3517l5.0289.4975-3.98444-3.1082c-2.87094-2.2393-4.02145-5.6034-3.17802-8.8375 8.95996 9.2933 19.48016 8.5949 20.53906 8.8405-.2331-2.264-.2392-2.2693-.3002-2.4849-1.3561-4.7939 1.6159-7.22806 2.9564-8.05204 2.8-1.72081 7.2445-1.98021 10.3229.85488.665.61186 1.5641.85256 2.4056.64356.7553-.1877 1.3752-.38645 1.9821-.60275l-1.2634 3.60795 1.6128.0011c-.3044.4082-.6694.8969-1.1085 1.4828z" fill="#2E2F22"/>
  </g>
  <defs>
    <clipPath id="clip0">
      <path fill="#fff" d="M0 0h50v50H0z"/>
    </clipPath>
  </defs>
</svg>
